<svg xmlns="http://www.w3.org/2000/svg" width="131.22" height="32" viewBox="0 0 131.22 32"><g transform="translate(-42.33 -36.1)"><g transform="translate(42.33 36.1)"><path d="M127.869,105.5l5.918,10.317H121.97A12.323,12.323,0,0,0,127.869,105.5Z" transform="translate(-97.499 -84.18)" fill="#005ca9"/><path d="M71.407,54.073a6.962,6.962,0,1,0,13.037,3.371,7.144,7.144,0,0,0-.987-3.614L77.5,43.441,71.56,53.79ZM77.493,36.1,86.6,51.977a10.786,10.786,0,0,1,1.485,5.463,10.594,10.594,0,1,1-19.874-5.147l.166-.3Z" transform="translate(-59.347 -36.1)" fill="#a8a8a7" fill-rule="evenodd"/><path d="M48.245,105.5a12.323,12.323,0,0,0,5.9,10.317H42.33Z" transform="translate(-42.33 -84.18)" fill="#005ca9"/><path d="M184.457,85.529h13.477v3.532h-20.5V88.022l13.283-17.673H176.87V66.82h20.658v1.122ZM234,89.061h-4.024l0-18.709h-9V66.82H243v3.529h-9ZM204.061,75.938h14.633V79.47l-14.633,0V84.7a.832.832,0,0,0,.833.833h13.8v3.532l-14.292,0a4.366,4.366,0,0,1-4.365-4.365l0-5.226V75.941l0-4.746a4.366,4.366,0,0,1,4.365-4.365l14.292,0v3.532h-13.8a.832.832,0,0,0-.833.833Zm44.812.516h13.886V71.185a.832.832,0,0,0-.833-.833h-12.22a.832.832,0,0,0-.833.833Zm17.916,12.607h-4.024l0-9.075-13.886,0v9.075h-4.027l0-10.427v-.867l0-6.573a4.366,4.366,0,0,1,4.365-4.365l6.071,0h1.064l6.071,0a4.366,4.366,0,0,1,4.365,4.365l0,6.576V89.061Z" transform="translate(-135.568 -57.39)" fill="#005ca9"/></g></g></svg>